<svg width="100" height="100" viewBox="0 0 100 100" fill="none" xmlns="http://www.w3.org/2000/svg">
<rect width="100" height="100" rx="10" fill="black"/>
<path d="M21.176 56.992C20.696 57.344 20.024 57.64 19.16 57.88C18.312 58.104 17.208 58.216 15.848 58.216C14.504 58.216 13.224 58.104 12.008 57.88C10.792 57.656 9.92 57.408 9.392 57.136C8.864 56.864 8.6 56.6 8.6 56.344C8.6 55.448 8.728 54.52 8.984 53.56C9.24 52.584 9.544 52.096 9.896 52.096C9.96 52.096 10.624 52.312 11.888 52.744C13.152 53.176 14.104 53.392 14.744 53.392C15.384 53.392 15.8 53.328 15.992 53.2C16.184 53.056 16.28 52.856 16.28 52.6C16.28 52.344 16.104 52.12 15.752 51.928C15.4 51.72 14.96 51.544 14.432 51.4C13.904 51.24 13.328 51.016 12.704 50.728C12.096 50.44 11.528 50.12 11 49.768C10.472 49.416 10.032 48.92 9.68 48.28C9.328 47.624 9.152 46.88 9.152 46.048C9.152 42.496 11.272 40.72 15.512 40.72C17.096 40.72 18.464 40.824 19.616 41.032C20.768 41.224 21.576 41.448 22.04 41.704C22.52 41.944 22.76 42.184 22.76 42.424C22.76 43.256 22.56 44.152 22.16 45.112C21.776 46.072 21.4 46.552 21.032 46.552C20.968 46.552 20.76 46.48 20.408 46.336C19.352 45.872 18.472 45.64 17.768 45.64C17.08 45.64 16.608 45.704 16.352 45.832C16.112 45.96 15.992 46.16 15.992 46.432C15.992 46.688 16.168 46.904 16.52 47.08C16.872 47.24 17.304 47.392 17.816 47.536C18.344 47.664 18.912 47.872 19.52 48.16C20.144 48.432 20.72 48.76 21.248 49.144C21.776 49.512 22.216 50.04 22.568 50.728C22.92 51.416 23.096 52.216 23.096 53.128C23.096 54.088 22.848 54.96 22.352 55.744C22.048 56.224 21.656 56.64 21.176 56.992ZM31.3591 57.304C31.3591 57.512 30.8711 57.68 29.8951 57.808C28.9351 57.936 27.9591 58 26.9671 58C25.9911 58 25.3591 57.944 25.0711 57.832C24.7991 57.72 24.6631 57.544 24.6631 57.304V42.544C24.6631 42.144 25.1271 41.784 26.0551 41.464C26.9831 41.128 27.9911 40.96 29.0791 40.96C30.5991 40.96 31.3591 41.32 31.3591 42.04V47.32H33.4951V42.544C33.4951 42.144 33.9591 41.784 34.8871 41.464C35.8311 41.128 36.8471 40.96 37.9351 40.96C39.4391 40.96 40.1911 41.32 40.1911 42.04V57.304C40.1911 57.512 39.7031 57.68 38.7271 57.808C37.7511 57.936 36.7751 58 35.7991 58C34.8231 58 34.1911 57.944 33.9031 57.832C33.6311 57.72 33.4951 57.544 33.4951 57.304V51.808H31.3591V57.304ZM50.2126 58.216C48.8846 58.216 47.7406 58.096 46.7806 57.856C45.8366 57.6 44.9646 57.152 44.1646 56.512C42.5486 55.248 41.7406 52.824 41.7406 49.24C41.7406 47.736 41.9566 46.424 42.3886 45.304C42.8366 44.184 43.4526 43.296 44.2366 42.64C45.7726 41.36 47.7646 40.72 50.2126 40.72C51.4766 40.72 52.5726 40.832 53.5006 41.056C54.4446 41.28 55.3326 41.688 56.1646 42.28C57.8446 43.496 58.6846 45.816 58.6846 49.24C58.6846 52.312 57.9246 54.576 56.4046 56.032C54.8846 57.488 52.8206 58.216 50.2126 58.216ZM49.4206 54.112C49.6126 54.336 49.8766 54.448 50.2126 54.448C50.5486 54.448 50.8126 54.336 51.0046 54.112C51.1966 53.872 51.3566 53.376 51.4846 52.624C51.6126 51.856 51.6766 50.792 51.6766 49.432C51.6766 48.072 51.6126 47.024 51.4846 46.288C51.3566 45.552 51.1966 45.072 51.0046 44.848C50.8126 44.624 50.5486 44.512 50.2126 44.512C49.8766 44.512 49.6126 44.624 49.4206 44.848C49.2286 45.072 49.0686 45.552 48.9406 46.288C48.8126 47.024 48.7486 48.072 48.7486 49.432C48.7486 50.792 48.8126 51.856 48.9406 52.624C49.0686 53.376 49.2286 53.872 49.4206 54.112ZM70.4413 57.424C70.4413 57.6 69.9453 57.744 68.9533 57.856C67.9773 57.952 66.9933 58 66.0013 58C65.0253 58 64.4013 57.96 64.1293 57.88C63.8733 57.784 63.7453 57.632 63.7453 57.424V47.104H60.4093C60.2333 47.104 60.0813 46.88 59.9533 46.432C59.8253 45.984 59.7613 45.32 59.7613 44.44C59.7613 43.544 59.8573 42.744 60.0493 42.04C60.2413 41.32 60.4973 40.96 60.8173 40.96H73.8013C74.0413 40.96 74.2013 41.184 74.2812 41.632C74.3773 42.08 74.4253 42.728 74.4253 43.576C74.4253 44.424 74.3373 45.224 74.1613 45.976C73.9853 46.728 73.7453 47.104 73.4413 47.104H70.4413V57.424ZM88.8821 45.832C88.8821 46.12 88.4581 46.784 87.6101 47.824C86.7621 48.864 85.4901 50.272 83.7941 52.048H88.8581C89.0341 52.048 89.1781 52.288 89.2901 52.768C89.4181 53.232 89.4821 53.896 89.4821 54.76C89.4821 55.608 89.3781 56.36 89.1701 57.016C88.9781 57.672 88.7141 58 88.3781 58H76.6901C76.2261 58 75.8901 57.536 75.6821 56.608C75.4901 55.68 75.3941 54.672 75.3941 53.584C75.3941 53.344 75.8421 52.688 76.7381 51.616C77.6341 50.544 78.9861 49.048 80.7941 47.128H76.1381C75.7061 47.128 75.4901 46.432 75.4901 45.04C75.4901 44.064 75.5941 43.144 75.8021 42.28C76.0101 41.4 76.2741 40.96 76.5941 40.96H87.6581C88.4741 40.96 88.8821 42.584 88.8821 45.832Z" fill="white"/>
</svg>
